<svg xmlns="http://www.w3.org/2000/svg" xml:space="preserve" style="fill-rule:evenodd;clip-rule:evenodd;stroke-linejoin:round;stroke-miterlimit:2" viewBox="0 0 277 123">
    <mask id="textMask">
        <path d="M441.972 418.797c52.822 0 95.707 42.885 95.707 95.707 0 52.823-42.885 95.708-95.707 95.708-15.173 0-35.037-7.324-54.957-18.87-20.246-11.736-40.968-27.5-56.273-40.001 8.531-7.055 13.927-11.771 13.927-11.771.08-.07.158-.14.235-.212 0 0 8.019-7.418 20.124-17.367 8.794 6.989 18.972 14.646 29.503 21.688 16.957 11.341 34.401 22.127 47.441 22.127 28.314 0 51.301-22.987 51.301-51.302 0-28.314-22.987-51.301-51.301-51.301l-.339.002-.11.003-.232.005-.128.004-.22.008-.13.006-.228.012-.119.006-.285.019-.062.004-.349.028-.099.009-.253.024-.128.013-.228.024-.135.015-.231.028-.127.016-.266.035-.091.012-.359.052-.078.012-.283.045-.126.021-.24.04-.136.024-.236.043-.133.024-.259.05-.108.021-.37.076-.026.005-.344.074-.118.026-.256.058-.135.031-.245.058-.135.033-.26.064-.117.029-.352.091-.025.006-.383.102-.101.028-.281.078-.129.037-.259.074-.133.038-.266.079-.121.036-.325.099-.061.019-.394.124-.069.022-.322.104-.118.04-.277.091-.128.044-.277.094-.12.041-.318.111-.076.027-.408.146-.398.146-.1.037-.302.113-.119.045-.293.112-.115.044-.321.125-.082.032-.411.163-.416.168-.07.029-.339.14-.105.043-.313.131-.106.045-.331.141-.081.035-.414.179-.435.191-.023.01-.393.175-.084.038-.339.153-.094.043-.346.159-.076.035-.418.194-.445.21-.43.205-.056.027-.372.18-.079.038-.364.178-.068.034-.419.207-.006.003-.449.224-.448.227-.017.008-.415.213-.06.03-.291.151-.616.32-.168.088-.54.286-.155.082-.619.333-.203.11-.613.333-.188.104-.537.297-.151.083c-6.709 3.733-13.665 8.241-20.541 12.84l-1.662 1.118-1.865 1.271-2.1 1.452-2.085 1.462-2.274 1.617-.1.072-1.993 1.437-1.279.931-1.256.921-.902.667-.695.515-.607.452-.691.515-.6.451-.687.516-.593.447-.683.518-.585.444-.681.519-.574.439-.681.522-.562.432-.683.528-.546.422-.69.536-.525.409-.706.552-.495.388-.746.586-.44.347-.88.696-.291.23-1.441 1.148-1.276 1.022-1.883 1.519-2.196 1.788-2.116 1.741-.658.545-1.053.875-.004.003a582.853 582.853 0 0 0-9.883 8.412l-.102.089-.61.533-.158.137-.525.46-.188.165-.419.368-.92.811-.651.578-.472.418-.576.514-.412.368-.5.449-.348.313-.424.382-.28.253-.347.315-.209.19-.268.245-.131.12-.33.303-.253.23c-10.488 9.403-49.531 43.367-84.979 62.949-5.875 3.246-11.698 6.078-17.353 8.427l.068.058c-11.257 4.632-21.895 7.412-30.978 7.714l-.294.01-.19.004-.176.004-.025.001-.058.001-.107.001-.136.003-.121.001-.082.001h-.052c-.13.002-.261.002-.391.002-52.823 0-95.708-42.885-95.708-95.708 0-52.822 42.885-95.707 95.708-95.707 15.172 0 35.036 7.324 54.956 18.87 20.129 11.667 40.728 27.317 56.007 39.784-7.292 6.203-12.191 10.642-13.509 11.848v-.001a601.404 601.404 0 0 1-20.632 17.623c-8.765-6.962-18.898-14.581-29.381-21.591-16.958-11.341-34.401-22.127-47.441-22.127-28.314 0-51.302 22.987-51.302 51.301 0 28.315 22.988 51.302 51.302 51.302l.275-.002c11.338-.142 26.288-8.945 41.503-18.684 16.182-10.357 32.123-22.711 44.276-32.709l.904-.746.306-.253.59-.488.348-.289.54-.448.349-.291.538-.449.325-.271.613-.513.228-.192.08-.067 1.305-1.099.195-.164 1.254-1.062.231-.196 1.215-1.035.117-.1 1.128-.967.147-.125 1.006-.867.968-.838.35-.303 1.234-1.074.267-.233.893-.782.391-.344.689-.606.387-.342.616-.545.344-.305.596-.53.262-.234.761-.68.406-.371.037-.033.011-.011c.537-.488 1.366-1.239 2.46-2.216l.017-.015c.439-.392.921-.822 1.444-1.285l.411-.364.042-.036.146-.13.261-.23.258-.228.259-.228.248-.218.133-.117.926-.811.049-.043.161-.14.592-.518.282-.245.152-.132.138-.12.297-.258.819-.709.014-.012c.415-.36.843-.729 1.279-1.104l.057-.049.087-.074.578-.497.722-.618.036-.031c1.6-1.368 3.328-2.832 5.172-4.376l.21-.175.116-.097.355-.297.31-.259.095-.079.253-.211.556-.463.653-.541.34-.281.037-.031.215-.178.404-.333.268-.222.239-.196.362-.299.223-.183.115-.095.629-.516c15.371-12.594 36.453-28.696 57.043-40.631 6.018-3.488 12.031-6.591 17.91-9.222.42-.188.839-.374 1.258-.557l.029-.012c.418-.183.835-.364 1.251-.542l.339-.144.273-.115.033-.014c.408-.172.816-.342 1.222-.51l.025-.01.029-.012c.407-.167.813-.332 1.219-.495l.351-.14.244-.097.036-.014.026-.01c.396-.157.792-.311 1.188-.464l.033-.013.041-.015.218-.084.344-.131.024-.009.602-.226.361-.135.219-.081.049-.018.036-.013c.386-.142.772-.282 1.156-.419l.039-.014.053-.019.212-.075.308-.109.04-.014.016-.006.581-.202.014-.005.038-.013.317-.109.197-.067.058-.019.045-.016c.376-.127.751-.252 1.125-.375l.044-.014.062-.02.208-.068.278-.09.056-.018.024-.008.562-.179.016-.005.046-.015.312-.097.179-.056.064-.02.053-.016c.366-.113.731-.224 1.096-.332l.046-.014.069-.02.206-.061.252-.074.067-.02.032-.009.544-.156.017-.005.051-.014.31-.088.161-.045.068-.019.06-.016.133-.037.377-.103.022-.007.536-.143.046-.013.075-.019.204-.054.23-.06.075-.019.038-.01.528-.134.016-.004.054-.014.309-.077.147-.036.069-.017.065-.016.133-.032.34-.082.039-.009.01-.002c.174-.042.347-.082.52-.122l.045-.011.079-.018.203-.046.212-.048.079-.018.042-.009.513-.113.015-.003.052-.011.312-.067.134-.028.069-.015.069-.014.134-.028.308-.063.054-.011.015-.003.504-.1.044-.009.08-.015.204-.039.195-.037.081-.015.046-.009.499-.091.012-.002.049-.009.316-.056.123-.021.067-.012.071-.012.135-.023.283-.047.063-.01.019-.003.489-.078.041-.007.081-.012.205-.032.181-.027.08-.012.049-.007.485-.07.01-.001.041-.006.323-.044.113-.015.064-.008.072-.009.137-.018.261-.033.068-.009.023-.002c.158-.02.317-.038.475-.057l.038-.004.079-.009.207-.023.168-.018.078-.009.051-.005.472-.047.368-.035.104-.009.061-.006.073-.006.138-.012.242-.019.071-.006.025-.002c.154-.012.308-.024.461-.034l.034-.003.077-.005.209-.014.156-.009.076-.005.052-.003c.153-.009.306-.018.459-.025l.362-.017.095-.004.057-.003.072-.002.14-.006.224-.007.072-.003.027-.001.447-.011.03-.001.073-.001.212-.004.144-.002.073-.001h.053l.088-.001.357-.001Z"  x="0" y="0" style="fill:white" transform="matrix(.63962 0 0 .63962 -67.902 -267.872)"/>
    </mask>
    <filter id="innerShadow" x="0" y="-20%" width="140%" height="140%">
        <feGaussianBlur in="SourceGraphic" stdDeviation="10" result="blur"/>
        <feOffset in="blur" dx="10" dy="10"/>
    </filter>
    <g mask="url(#textMask)">
        <rect x="0" y="0" width="100%" height="100%" style="fill:#202020"/>
        <path d="M441.972 418.797c52.822 0 95.707 42.885 95.707 95.707 0 52.823-42.885 95.708-95.707 95.708-15.173 0-35.037-7.324-54.957-18.87-20.246-11.736-40.968-27.5-56.273-40.001 8.531-7.055 13.927-11.771 13.927-11.771.08-.07.158-.14.235-.212 0 0 8.019-7.418 20.124-17.367 8.794 6.989 18.972 14.646 29.503 21.688 16.957 11.341 34.401 22.127 47.441 22.127 28.314 0 51.301-22.987 51.301-51.302 0-28.314-22.987-51.301-51.301-51.301l-.339.002-.11.003-.232.005-.128.004-.22.008-.13.006-.228.012-.119.006-.285.019-.062.004-.349.028-.099.009-.253.024-.128.013-.228.024-.135.015-.231.028-.127.016-.266.035-.091.012-.359.052-.078.012-.283.045-.126.021-.24.04-.136.024-.236.043-.133.024-.259.05-.108.021-.37.076-.026.005-.344.074-.118.026-.256.058-.135.031-.245.058-.135.033-.26.064-.117.029-.352.091-.025.006-.383.102-.101.028-.281.078-.129.037-.259.074-.133.038-.266.079-.121.036-.325.099-.061.019-.394.124-.069.022-.322.104-.118.04-.277.091-.128.044-.277.094-.12.041-.318.111-.076.027-.408.146-.398.146-.1.037-.302.113-.119.045-.293.112-.115.044-.321.125-.082.032-.411.163-.416.168-.07.029-.339.14-.105.043-.313.131-.106.045-.331.141-.081.035-.414.179-.435.191-.023.01-.393.175-.084.038-.339.153-.094.043-.346.159-.076.035-.418.194-.445.21-.43.205-.056.027-.372.18-.079.038-.364.178-.068.034-.419.207-.006.003-.449.224-.448.227-.017.008-.415.213-.06.03-.291.151-.616.32-.168.088-.54.286-.155.082-.619.333-.203.11-.613.333-.188.104-.537.297-.151.083c-6.709 3.733-13.665 8.241-20.541 12.84l-1.662 1.118-1.865 1.271-2.1 1.452-2.085 1.462-2.274 1.617-.1.072-1.993 1.437-1.279.931-1.256.921-.902.667-.695.515-.607.452-.691.515-.6.451-.687.516-.593.447-.683.518-.585.444-.681.519-.574.439-.681.522-.562.432-.683.528-.546.422-.69.536-.525.409-.706.552-.495.388-.746.586-.44.347-.88.696-.291.23-1.441 1.148-1.276 1.022-1.883 1.519-2.196 1.788-2.116 1.741-.658.545-1.053.875-.004.003a582.853 582.853 0 0 0-9.883 8.412l-.102.089-.61.533-.158.137-.525.46-.188.165-.419.368-.92.811-.651.578-.472.418-.576.514-.412.368-.5.449-.348.313-.424.382-.28.253-.347.315-.209.19-.268.245-.131.12-.33.303-.253.23c-10.488 9.403-49.531 43.367-84.979 62.949-5.875 3.246-11.698 6.078-17.353 8.427l.068.058c-11.257 4.632-21.895 7.412-30.978 7.714l-.294.01-.19.004-.176.004-.025.001-.058.001-.107.001-.136.003-.121.001-.082.001h-.052c-.13.002-.261.002-.391.002-52.823 0-95.708-42.885-95.708-95.708 0-52.822 42.885-95.707 95.708-95.707 15.172 0 35.036 7.324 54.956 18.87 20.129 11.667 40.728 27.317 56.007 39.784-7.292 6.203-12.191 10.642-13.509 11.848v-.001a601.404 601.404 0 0 1-20.632 17.623c-8.765-6.962-18.898-14.581-29.381-21.591-16.958-11.341-34.401-22.127-47.441-22.127-28.314 0-51.302 22.987-51.302 51.301 0 28.315 22.988 51.302 51.302 51.302l.275-.002c11.338-.142 26.288-8.945 41.503-18.684 16.182-10.357 32.123-22.711 44.276-32.709l.904-.746.306-.253.59-.488.348-.289.54-.448.349-.291.538-.449.325-.271.613-.513.228-.192.08-.067 1.305-1.099.195-.164 1.254-1.062.231-.196 1.215-1.035.117-.1 1.128-.967.147-.125 1.006-.867.968-.838.35-.303 1.234-1.074.267-.233.893-.782.391-.344.689-.606.387-.342.616-.545.344-.305.596-.53.262-.234.761-.68.406-.371.037-.033.011-.011c.537-.488 1.366-1.239 2.46-2.216l.017-.015c.439-.392.921-.822 1.444-1.285l.411-.364.042-.036.146-.13.261-.23.258-.228.259-.228.248-.218.133-.117.926-.811.049-.043.161-.14.592-.518.282-.245.152-.132.138-.12.297-.258.819-.709.014-.012c.415-.36.843-.729 1.279-1.104l.057-.049.087-.074.578-.497.722-.618.036-.031c1.6-1.368 3.328-2.832 5.172-4.376l.21-.175.116-.097.355-.297.31-.259.095-.079.253-.211.556-.463.653-.541.34-.281.037-.031.215-.178.404-.333.268-.222.239-.196.362-.299.223-.183.115-.095.629-.516c15.371-12.594 36.453-28.696 57.043-40.631 6.018-3.488 12.031-6.591 17.91-9.222.42-.188.839-.374 1.258-.557l.029-.012c.418-.183.835-.364 1.251-.542l.339-.144.273-.115.033-.014c.408-.172.816-.342 1.222-.51l.025-.01.029-.012c.407-.167.813-.332 1.219-.495l.351-.14.244-.097.036-.014.026-.01c.396-.157.792-.311 1.188-.464l.033-.013.041-.015.218-.084.344-.131.024-.009.602-.226.361-.135.219-.081.049-.018.036-.013c.386-.142.772-.282 1.156-.419l.039-.014.053-.019.212-.075.308-.109.04-.014.016-.006.581-.202.014-.005.038-.013.317-.109.197-.067.058-.019.045-.016c.376-.127.751-.252 1.125-.375l.044-.014.062-.02.208-.068.278-.09.056-.018.024-.008.562-.179.016-.005.046-.015.312-.097.179-.056.064-.02.053-.016c.366-.113.731-.224 1.096-.332l.046-.014.069-.02.206-.061.252-.074.067-.02.032-.009.544-.156.017-.005.051-.014.31-.088.161-.045.068-.019.06-.016.133-.037.377-.103.022-.007.536-.143.046-.013.075-.019.204-.054.23-.06.075-.019.038-.01.528-.134.016-.004.054-.014.309-.077.147-.036.069-.017.065-.016.133-.032.34-.082.039-.009.01-.002c.174-.042.347-.082.52-.122l.045-.011.079-.018.203-.046.212-.048.079-.018.042-.009.513-.113.015-.003.052-.011.312-.067.134-.028.069-.015.069-.014.134-.028.308-.063.054-.011.015-.003.504-.1.044-.009.08-.015.204-.039.195-.037.081-.015.046-.009.499-.091.012-.002.049-.009.316-.056.123-.021.067-.012.071-.012.135-.023.283-.047.063-.01.019-.003.489-.078.041-.007.081-.012.205-.032.181-.027.08-.012.049-.007.485-.07.01-.001.041-.006.323-.044.113-.015.064-.008.072-.009.137-.018.261-.033.068-.009.023-.002c.158-.02.317-.038.475-.057l.038-.004.079-.009.207-.023.168-.018.078-.009.051-.005.472-.047.368-.035.104-.009.061-.006.073-.006.138-.012.242-.019.071-.006.025-.002c.154-.012.308-.024.461-.034l.034-.003.077-.005.209-.014.156-.009.076-.005.052-.003c.153-.009.306-.018.459-.025l.362-.017.095-.004.057-.003.072-.002.14-.006.224-.007.072-.003.027-.001.447-.011.03-.001.073-.001.212-.004.144-.002.073-.001h.053l.088-.001.357-.001Z"  x="0" y="0" style="fill: #505050; filter: url(#innerShadow)" transform="matrix(.63962 0 0 .63962 -67.902 -267.872)"/>
    </g>
</svg>